<?xml version="1.0" encoding="UTF-8"?>
<svg xmlns="http://www.w3.org/2000/svg" viewBox="0 0 1200 630" width="1200" height="630">
  <!--
    Bitcraft Open Graph Image - Default
    https://github.com/bitcraft-apps/brand
    1200x630px for social sharing (Facebook, LinkedIn, Twitter, etc.)
  -->
  <!-- Background -->
  <rect width="1200" height="630" fill="#556B2F"/>

  <!-- Horizontal Lockup (scaled 3x from 194x48 to ~582x144, centered) -->
  <g transform="translate(309, 180) scale(3)">
    <g fill="#FFFFFF">
      <!-- Logomark (B) -->
      <g>
        <rect x="0" y="0" width="31.5" height="8.2" rx="4.1"/>
        <rect x="8.2" y="10.3" width="30.2" height="8.2" rx="4.1"/>
        <rect x="0" y="20.6" width="24.7" height="6.9" rx="3.4"/>
        <rect x="8.2" y="29.5" width="37" height="8.2" rx="4.1"/>
        <rect x="0" y="39.8" width="34.3" height="8.2" rx="4.1"/>
      </g>
      <!-- itcraft text -->
      <g transform="translate(47.2, -7.8)">
        <path d="M6.72 20.64Q4.94 20.64 3.77 19.51Q2.59 18.38 2.59 16.70L2.59 16.70Q2.59 15.02 3.77 13.90Q4.94 12.77 6.72 12.77L6.72 12.77Q8.50 12.77 9.67 13.90Q10.85 15.02 10.85 16.70L10.85 16.70Q10.85 18.38 9.67 19.51Q8.50 20.64 6.72 20.64L6.72 20.64ZM3.31 23.81L10.03 23.81L10.03 50.40L3.31 50.40L3.31 23.81ZM30.43 29.33L24.48 29.33L24.48 42.19Q24.48 43.54 25.13 44.14Q25.78 44.74 27.31 44.74L27.31 44.74L30.43 44.74L30.43 50.40L26.21 50.40Q17.71 50.40 17.71 42.14L17.71 42.14L17.71 29.33L14.54 29.33L14.54 23.81L17.71 23.81L17.71 17.23L24.48 17.23L24.48 23.81L30.43 23.81L30.43 29.33ZM33.55 37.10Q33.55 32.98 35.23 29.88Q36.91 26.78 39.89 25.08Q42.86 23.38 46.70 23.38L46.70 23.38Q51.65 23.38 54.89 25.85Q58.13 28.32 59.23 32.78L59.23 32.78L51.98 32.78Q51.41 31.06 50.04 30.07Q48.67 29.09 46.66 29.09L46.66 29.09Q43.78 29.09 42.10 31.18Q40.42 33.26 40.42 37.10L40.42 37.10Q40.42 40.90 42.10 42.98Q43.78 45.07 46.66 45.07L46.66 45.07Q50.74 45.07 51.98 41.42L51.98 41.42L59.23 41.42Q58.13 45.74 54.86 48.29Q51.60 50.83 46.70 50.83L46.70 50.83Q42.86 50.83 39.89 49.13Q36.91 47.42 35.23 44.33Q33.55 41.23 33.55 37.10L33.55 37.10ZM70.90 27.94Q72.19 25.82 74.28 24.62Q76.37 23.42 79.06 23.42L79.06 23.42L79.06 30.48L77.28 30.48Q74.11 30.48 72.50 31.97Q70.90 33.46 70.90 37.15L70.90 37.15L70.90 50.40L64.18 50.40L64.18 23.81L70.90 23.81L70.90 27.94ZM81.84 37.01Q81.84 32.98 83.45 29.86Q85.06 26.74 87.82 25.06Q90.58 23.38 93.98 23.38L93.98 23.38Q96.96 23.38 99.19 24.58Q101.42 25.78 102.77 27.60L102.77 27.60L102.77 23.81L109.54 23.81L109.54 50.40L102.77 50.40L102.77 46.51Q101.47 48.38 99.19 49.61Q96.91 50.83 93.94 50.83L93.94 50.83Q90.58 50.83 87.82 49.10Q85.06 47.38 83.45 44.23Q81.84 41.09 81.84 37.01L81.84 37.01ZM102.77 37.10Q102.77 34.66 101.81 32.90Q100.85 31.15 99.22 30.22Q97.58 29.28 95.71 29.28L95.71 29.28Q93.84 29.28 92.26 30.19Q90.67 31.10 89.69 32.86Q88.70 34.61 88.70 37.01L88.70 37.01Q88.70 39.41 89.69 41.21Q90.67 43.01 92.28 43.97Q93.89 44.93 95.71 44.93L95.71 44.93Q97.58 44.93 99.22 43.99Q100.85 43.06 101.81 41.30Q102.77 39.55 102.77 37.10L102.77 37.10ZM128.30 23.81L128.30 29.33L123.65 29.33L123.65 50.40L116.83 50.40L116.83 29.33L113.81 29.33L113.81 23.81L116.83 23.81L116.83 22.46Q116.83 17.57 119.62 15.26Q122.40 12.96 128.02 13.10L128.02 13.10L128.02 18.77Q125.57 18.72 124.61 19.58Q123.65 20.45 123.65 22.70L123.65 22.70L123.65 23.81L128.30 23.81ZM146.45 29.33L140.50 29.33L140.50 42.19Q140.50 43.54 141.14 44.14Q141.79 44.74 143.33 44.74L143.33 44.74L146.45 44.74L146.45 50.40L142.22 50.40Q133.73 50.40 133.73 42.14L133.73 42.14L133.73 29.33L130.56 29.33L130.56 23.81L133.73 23.81L133.73 17.23L140.50 17.23L140.50 23.81L146.45 23.81L146.45 29.33Z"/>
      </g>
    </g>
  </g>

  <!-- Tagline - centered below lockup -->
  <text x="600" y="420" text-anchor="middle" font-family="system-ui, -apple-system, sans-serif" font-size="32" font-weight="400" fill="#FFFFFF" opacity="0.9">Software development &amp; custom applications</text>
</svg>
